<svg id="DaleelStoreLogo" xmlns="http://www.w3.org/2000/svg" xmlns:xlink="http://www.w3.org/1999/xlink" viewBox="0 0 368.11 103.76"><defs><style>.cls-1{fill:url(#linear-gradient);}.cls-2{fill:#7878a0;}</style><linearGradient id="linear-gradient" x1="257.48" y1="53.88" x2="372.86" y2="53.88" gradientUnits="userSpaceOnUse"><stop offset="0.04" stop-color="#079cec"/><stop offset="0.37" stop-color="#6b81f9"/><stop offset="1" stop-color="#a881f3"/></linearGradient></defs><title>logo</title><g id="TheLogo"><g id="TheIcon"><path id="D" class="cls-1" d="M328,4.21,316.46,20a2.31,2.31,0,0,0,2.07,3.66c1.35-.12,2.42-.18,2.91-.18h0a30.19,30.19,0,0,1,30.15,31c-.46,16.44-11.8,16.31-28.24,16.31H293.57a3.61,3.61,0,0,1-3.09-5.48L297.9,49.8a1.3,1.3,0,0,0-2.28-1.19L258,100.23a3.65,3.65,0,0,0,3.12,5.53h58.2c29.5,0,53.93-23.87,53.54-53.37A52.75,52.75,0,0,0,333.58,2.17,5.32,5.32,0,0,0,328,4.21Z" transform="translate(-4.75 -2)"/></g><g id="Text"><g id="En"><path class="cls-2" d="M149.05,84.89l1.17-2.31A14,14,0,0,0,159.59,86c5.31,0,7.62-2.23,7.62-5,0-7.79-17.47-3-17.47-13.5,0-4.18,3.24-7.78,10.46-7.78A16,16,0,0,1,169,62.23l-1,2.39a14.63,14.63,0,0,0-7.78-2.35c-5.19,0-7.5,2.31-7.5,5.15,0,7.78,17.46,3.08,17.46,13.41,0,4.18-3.32,7.74-10.57,7.74C155.33,88.57,151.16,87.07,149.05,84.89Z" transform="translate(-4.75 -2)"/><path class="cls-2" d="M186.59,87a6.65,6.65,0,0,1-4.46,1.5c-4,0-6.24-2.27-6.24-6.2v-20h2.87V67h6.45v2.43h-6.45V82.17c0,2.51,1.26,3.89,3.65,3.89A4.67,4.67,0,0,0,185.57,85Z" transform="translate(-4.75 -2)"/><path class="cls-2" d="M188.9,77.67a10.84,10.84,0,1,1,10.86,10.86A10.49,10.49,0,0,1,188.9,77.67Zm18.76,0c0-5-3.36-8.31-7.9-8.31s-7.94,3.33-7.94,8.31,3.4,8.31,7.94,8.31S207.66,82.66,207.66,77.67Z" transform="translate(-4.75 -2)"/><path class="cls-2" d="M227.21,66.85v2.8c-.25,0-.49,0-.69,0-4.46,0-7.18,2.83-7.18,7.86V88.33h-2.87V67h2.75v4.18C220.56,68.35,223.27,66.85,227.21,66.85Z" transform="translate(-4.75 -2)"/><path class="cls-2" d="M247.84,83.18l1.62,1.87a10.41,10.41,0,0,1-8.19,3.48c-6.64,0-11.22-4.54-11.22-10.86s4.41-10.82,10.53-10.82c5.72,0,10,4.17,10.22,10.17l-17.51,3.41c1.05,3.44,4.05,5.55,8,5.55A8.27,8.27,0,0,0,247.84,83.18Zm-15-5.71a6.34,6.34,0,0,0,0,.89l15-2.92a7.23,7.23,0,0,0-7.34-6.12C236.05,69.32,232.84,72.65,232.84,77.47Z" transform="translate(-4.75 -2)"/><path class="cls-2" d="M4.75,60.16H17.8c9.39,0,15.83,5.66,15.83,14.35S27.19,88.87,17.8,88.87h-13ZM17.47,83.42c5.7,0,9.44-3.41,9.44-8.91s-3.74-8.9-9.44-8.9H11.4V83.42Z" transform="translate(-4.75 -2)"/><path class="cls-2" d="M60.58,66.8V88.87H54.47V86.33a8.49,8.49,0,0,1-6.9,2.87c-6.23,0-11-4.43-11-11.36s4.8-11.37,11-11.37a8.47,8.47,0,0,1,6.61,2.67V66.8Zm-6.28,11c0-3.82-2.46-6.12-5.62-6.12S43,74,43,77.84,45.48,84,48.68,84,54.3,81.65,54.3,77.84Z" transform="translate(-4.75 -2)"/><path class="cls-2" d="M66.48,81.57V58.43h6.4V81.2c0,1.89,1,2.91,2.74,2.91a4.14,4.14,0,0,0,1.81-.41l.29,5a10.44,10.44,0,0,1-3.33.53C69.43,89.2,66.48,86.49,66.48,81.57Z" transform="translate(-4.75 -2)"/><path class="cls-2" d="M97.12,81.94l3.4,3.69c-2,2.34-5.13,3.57-9.11,3.57-7.63,0-12.59-4.8-12.59-11.36s5-11.37,11.81-11.37c6.24,0,11.37,4.11,11.41,11.16L85.71,80.79c1,2.18,3,3.28,5.87,3.28A7.51,7.51,0,0,0,97.12,81.94Zm-12-4.76,10.74-2.09a5.11,5.11,0,0,0-5.21-3.78C87.43,71.31,85.22,73.45,85.1,77.18Z" transform="translate(-4.75 -2)"/><path class="cls-2" d="M123,81.94l3.41,3.69c-2.05,2.34-5.13,3.57-9.11,3.57-7.63,0-12.59-4.8-12.59-11.36s5-11.37,11.81-11.37c6.24,0,11.37,4.11,11.41,11.16l-16.33,3.16c.94,2.18,3,3.28,5.87,3.28A7.47,7.47,0,0,0,123,81.94Zm-12-4.76,10.75-2.09a5.11,5.11,0,0,0-5.21-3.78C113.31,71.31,111.1,73.45,111,77.18Z" transform="translate(-4.75 -2)"/><path class="cls-2" d="M132.22,81.57V58.43h6.4V81.2c0,1.89,1,2.91,2.75,2.91a4.12,4.12,0,0,0,1.8-.41l.29,5a10.42,10.42,0,0,1-3.32.53C135.17,89.2,132.22,86.49,132.22,81.57Z" transform="translate(-4.75 -2)"/></g><g id="Ar"><path class="cls-2" d="M82.15,22.75h-4a.38.38,0,0,0-.43.43v18.9a4.07,4.07,0,0,1-.79,2.75,3.32,3.32,0,0,1-2.6.9h-1a.39.39,0,0,0-.43.43V49.6a.38.38,0,0,0,.43.43H75q7.61,0,7.61-7.86v-19A.38.38,0,0,0,82.15,22.75Z" transform="translate(-4.75 -2)"/><path class="cls-2" d="M159.36,23.81h-4a.38.38,0,0,0-.43.43v8.65a21.12,21.12,0,0,1-.09,2.19,2.91,2.91,0,0,1-.36,1.27,1.38,1.38,0,0,1-.88.6,7.08,7.08,0,0,1-1.64.15,3.35,3.35,0,0,1-2.19-.67,2.48,2.48,0,0,1-.81-2V26.21a.38.38,0,0,0-.43-.43h-4a.38.38,0,0,0-.43.43v7.62a10.22,10.22,0,0,1-.11,1.76,1.69,1.69,0,0,1-.43,1,1.59,1.59,0,0,1-.88.43,8.37,8.37,0,0,1-1.5.11c-2.06,0-3.1-.89-3.1-2.67V26.21a.37.37,0,0,0-.42-.43h-4a.38.38,0,0,0-.43.43v7.62a6.54,6.54,0,0,1-.34,2.56c-.23.47-.79.71-1.68.71H123a4.4,4.4,0,0,1-2.6-.69,2.29,2.29,0,0,1-1-2V26.25a.38.38,0,0,0-.43-.43h-3.7a1.33,1.33,0,0,0-.49.09.33.33,0,0,0-.24.34v6.64c0,.77,0,1.42,0,2a4.24,4.24,0,0,1-.24,1.29,1.42,1.42,0,0,1-.6.73,2.36,2.36,0,0,1-1.18.24h-7.57V32.24a13.23,13.23,0,0,0-.64-4.42,7.41,7.41,0,0,0-1.81-2.93,7.07,7.07,0,0,0-2.77-1.63,11.64,11.64,0,0,0-3.54-.51,10.59,10.59,0,0,0-3.35.53A7.33,7.33,0,0,0,90,25a8.72,8.72,0,0,0-1.93,3.05,12.32,12.32,0,0,0-.73,4.49,12.64,12.64,0,0,0,.58,4.13,7,7,0,0,0,1.65,2.73,6.15,6.15,0,0,0,2.65,1.5,13,13,0,0,0,3.58.45h4.34a7.85,7.85,0,0,1-.25,2.19,3.28,3.28,0,0,1-.73,1.34,2.69,2.69,0,0,1-1.21.66,6.69,6.69,0,0,1-1.72.19h-5a.38.38,0,0,0-.43.43V49.6a.38.38,0,0,0,.43.43H97c2.58,0,4.54-.61,5.88-1.85s2-3.19,2-5.88v-.95h8.77a9.25,9.25,0,0,0,3.29-.47,3.33,3.33,0,0,0,1.82-1.72,3.45,3.45,0,0,0,2,1.78,9.19,9.19,0,0,0,2.92.41h9a7.8,7.8,0,0,0,3.12-.51,3.53,3.53,0,0,0,1.74-1.77,4.2,4.2,0,0,0,4.17,2.28h1.89a7.88,7.88,0,0,0,3.07-.49,3.43,3.43,0,0,0,1.74-1.74A3.88,3.88,0,0,0,150,40.77a5.18,5.18,0,0,0,2.56.58h1.84c2,0,3.33-.41,4.15-1.22s1.22-2.22,1.22-4.19V24.24A.37.37,0,0,0,159.36,23.81ZM100.15,37.1H96.33a4.55,4.55,0,0,1-3.16-1c-.73-.66-1.09-1.89-1.09-3.7a6.38,6.38,0,0,1,1.09-3.91,3.58,3.58,0,0,1,3-1.46,3.46,3.46,0,0,1,3,1.31,6.57,6.57,0,0,1,.94,3.85Z" transform="translate(-4.75 -2)"/><rect class="cls-2" x="205.34" y="43.05" width="4.47" height="4.55" rx="0.43"/><rect class="cls-2" x="198.92" y="43.05" width="4.47" height="4.55" rx="0.43"/><path class="cls-2" d="M228.67,14.49h-4a.38.38,0,0,0-.43.43v19.9a2.49,2.49,0,0,1-.49,1.78,2.14,2.14,0,0,1-1.57.5h-6.9a4.38,4.38,0,0,1-2.6-.69,2.27,2.27,0,0,1-1-2V26.25a.38.38,0,0,0-.43-.43h-3.7a1.37,1.37,0,0,0-.49.09.33.33,0,0,0-.24.34v6.64c0,.77,0,1.42,0,2a4.24,4.24,0,0,1-.24,1.29,1.42,1.42,0,0,1-.6.73,2.34,2.34,0,0,1-1.18.24h-5.73a4.38,4.38,0,0,1-2.6-.69,2.3,2.3,0,0,1-1-2V14.92a.38.38,0,0,0-.43-.43h-4a.38.38,0,0,0-.43.43v25.4a5.3,5.3,0,0,1-1.51,4.23,5.82,5.82,0,0,1-4,1.31,7.56,7.56,0,0,1-2-.28,4.83,4.83,0,0,1-1.87-1,5.2,5.2,0,0,1-1.38-1.83,6.71,6.71,0,0,1-.53-2.81,9.7,9.7,0,0,1,.62-3.55,20.07,20.07,0,0,1,1.31-2.81.48.48,0,0,0,.06-.32c0-.1-.09-.18-.23-.24l-3.48-1.38c-.32-.14-.53-.11-.65.09a16.64,16.64,0,0,0-1.8,4,15.23,15.23,0,0,0-.73,4.64,11,11,0,0,0,.79,4.34,8.35,8.35,0,0,0,2.22,3.07,9.3,9.3,0,0,0,3.33,1.83,13.91,13.91,0,0,0,4.19.6,14.44,14.44,0,0,0,4.29-.6,9.13,9.13,0,0,0,3.33-1.83,8.08,8.08,0,0,0,2.15-3.07,11.43,11.43,0,0,0,.75-4.3V40a3.39,3.39,0,0,0,1.83,1.14,11.66,11.66,0,0,0,2.43.23H206a9.25,9.25,0,0,0,3.29-.47,3.31,3.31,0,0,0,1.83-1.72,3.4,3.4,0,0,0,2,1.78,27.27,27.27,0,0,0,5,.41h6A4.91,4.91,0,0,0,227.94,40a6.08,6.08,0,0,0,1.16-4.1v-21A.38.38,0,0,0,228.67,14.49Z" transform="translate(-4.75 -2)"/><path class="cls-2" d="M248.76,24.61a7.83,7.83,0,0,0-5.48-1.86H236.4a.37.37,0,0,0-.42.43v3.43a.37.37,0,0,0,.42.43h5.16q4.38,0,4.38,3.78V33.7a10.19,10.19,0,0,1-.1,1.59,2.12,2.12,0,0,1-.48,1.06,2.05,2.05,0,0,1-1.05.58,8.19,8.19,0,0,1-1.85.17h-8a.38.38,0,0,0-.43.43v3.39a.38.38,0,0,0,.43.43h10a10.43,10.43,0,0,0,2.84-.34,4,4,0,0,0,2-1.21,5.45,5.45,0,0,0,1.16-2.25A13.46,13.46,0,0,0,250.8,34V30.44Q250.8,26.48,248.76,24.61Z" transform="translate(-4.75 -2)"/><rect class="cls-2" x="113.1" y="14.95" width="4.47" height="4.55" rx="0.43"/><rect class="cls-2" x="106.69" y="14.95" width="4.47" height="4.55" rx="0.43"/></g></g></g></svg>