<?xml version="1.0" encoding="UTF-8"?>
<svg xmlns="http://www.w3.org/2000/svg" xmlns:xlink="http://www.w3.org/1999/xlink" width="654.17pt" height="153.06pt" viewBox="0 0 654.17 153.06" version="1.1">
<defs>
<clipPath id="clip1">
  <path d="M 246 0 L 421 0 L 421 153.058594 L 246 153.058594 Z M 246 0 "/>
</clipPath>
<clipPath id="clip2">
  <path d="M 568 40 L 654.171875 40 L 654.171875 113 L 568 113 Z M 568 40 "/>
</clipPath>
</defs>
<g id="surface1">
<path style=" stroke:none;fill-rule:evenodd;fill:rgb(5.099487%,49.798584%,76.499939%);fill-opacity:1;" d="M 72.769531 89.746094 C 71.835938 92.585938 70.332031 94.660156 68.257813 95.972656 C 66.394531 97.203125 63.722656 98.03125 60.25 98.453125 C 56.605469 98.964844 50.886719 99.214844 43.089844 99.214844 C 37.328125 99.214844 32.601563 98.980469 28.917969 98.515625 C 25.445313 98.050781 22.835938 97.351563 21.101563 96.417969 C 19.871094 95.699219 18.855469 94.851563 18.050781 93.878906 C 17.203125 92.859375 16.523438 91.632813 16.015625 90.191406 C 14.914063 87.183594 14.363281 82.480469 14.363281 76.082031 C 14.363281 70.703125 14.871094 66.570313 15.886719 63.691406 C 16.863281 60.933594 18.347656 58.859375 20.335938 57.460938 C 22.117188 56.273438 24.851563 55.449219 28.535156 54.980469 C 32.6875 54.472656 38.789063 54.21875 46.839844 54.21875 C 51.964844 54.21875 56.414063 54.472656 60.1875 54.980469 C 63.617188 55.488281 66.097656 56.1875 67.621094 57.078125 C 68.847656 57.796875 69.867188 58.625 70.671875 59.558594 C 71.5625 60.617188 72.238281 61.824219 72.707031 63.179688 C 73.808594 66.1875 74.359375 70.804688 74.359375 77.035156 C 74.359375 82.542969 73.828125 86.78125 72.769531 89.746094 M 87.070313 57.585938 C 86.136719 55.046875 84.804688 52.78125 83.066406 50.785156 C 81.328125 48.753906 79.253906 47.035156 76.835938 45.640625 C 73.660156 43.777344 69.675781 42.503906 64.890625 41.824219 C 60.101563 41.191406 53.28125 40.875 44.425781 40.875 C 39.253906 40.875 34.785156 41.019531 31.015625 41.316406 C 27.117188 41.65625 24.152344 42.140625 22.117188 42.78125 C 19.785156 43.5 17.710938 44.539063 15.886719 45.894531 C 15.464844 46.234375 15.039063 46.613281 14.617188 47.035156 L 14.617188 43.859375 C 14.617188 43.265625 14.40625 42.757813 13.980469 42.335938 C 13.558594 41.910156 13.070313 41.699219 12.519531 41.699219 L 2.160156 41.699219 C 1.566406 41.699219 1.039063 41.910156 0.570313 42.335938 C 0.191406 42.71875 0 43.222656 0 43.859375 L 0 133.34375 C 0 133.976563 0.191406 134.488281 0.570313 134.871094 C 1.039063 135.292969 1.566406 135.503906 2.160156 135.503906 L 12.519531 135.503906 C 13.070313 135.503906 13.558594 135.292969 13.980469 134.871094 C 14.40625 134.445313 14.617188 133.933594 14.617188 133.34375 L 14.617188 106.714844 C 16.820313 108.578125 19.40625 109.933594 22.371094 110.78125 C 24.449219 111.417969 27.308594 111.882813 30.953125 112.179688 C 34.425781 112.476563 38.535156 112.625 43.28125 112.625 C 49.847656 112.625 55.441406 112.433594 60.058594 112.050781 C 64.847656 111.671875 68.554688 111.078125 71.179688 110.273438 C 74.019531 109.425781 76.582031 108.132813 78.871094 106.394531 C 81.199219 104.617188 83.171875 102.457031 84.78125 99.914063 C 86.433594 97.414063 87.660156 94.152344 88.46875 90.128906 C 89.273438 86.355469 89.675781 81.90625 89.675781 76.78125 C 89.675781 68.601563 88.804688 62.207031 87.070313 57.585938 "/>
<path style=" stroke:none;fill-rule:evenodd;fill:rgb(5.099487%,49.798584%,76.499939%);fill-opacity:1;" d="M 169.945313 94.894531 C 169.308594 95.910156 168.289063 96.695313 166.894531 97.246094 C 165.367188 97.925781 162.847656 98.433594 159.328125 98.769531 C 155.941406 99.066406 151.410156 99.214844 145.730469 99.214844 C 135.6875 99.214844 128.546875 98.964844 124.3125 98.453125 C 122.828125 98.328125 121.707031 98.132813 120.945313 97.878906 L 120.054688 97.628906 C 118.824219 97.035156 117.914063 96.207031 117.320313 95.148438 C 116.730469 94.003906 116.433594 92.542969 116.433594 90.761719 C 116.433594 88.898438 116.6875 87.351563 117.191406 86.121094 C 117.746094 85.023438 118.484375 84.195313 119.421875 83.644531 C 120.097656 83.304688 120.859375 83.050781 121.707031 82.882813 C 122.808594 82.628906 124.1875 82.414063 125.839844 82.246094 C 129.101563 81.949219 135.03125 81.804688 143.632813 81.804688 C 149.734375 81.804688 154.542969 81.992188 158.058594 82.375 C 161.789063 82.710938 164.5625 83.222656 166.386719 83.898438 C 167.910156 84.492188 169.054688 85.320313 169.816406 86.378906 C 170.539063 87.394531 170.898438 88.773438 170.898438 90.507813 C 170.898438 92.246094 170.578125 93.707031 169.945313 94.894531 M 186.023438 64.769531 C 185.894531 62.226563 185.621094 59.957031 185.195313 57.972656 C 184.433594 54.449219 182.761719 51.359375 180.175781 48.691406 C 177.125 45.554688 172.890625 43.414063 167.464844 42.269531 C 164.921875 41.765625 161.597656 41.382813 157.488281 41.128906 C 153.121094 40.828125 148.273438 40.683594 142.933594 40.683594 C 135.644531 40.683594 129.546875 41 124.628906 41.636719 C 119.632813 42.3125 115.691406 43.328125 112.808594 44.683594 C 109.800781 46.167969 107.554688 48.265625 106.074219 50.980469 C 104.589844 53.648438 103.847656 56.886719 103.847656 60.699219 L 103.976563 63.816406 C 104.0625 64.324219 104.292969 64.769531 104.675781 65.148438 C 105.097656 65.53125 105.585938 65.722656 106.136719 65.722656 L 116.941406 65.722656 C 117.574219 65.722656 118.085938 65.53125 118.464844 65.148438 C 118.890625 64.726563 119.101563 64.195313 119.101563 63.5625 L 119.101563 62.671875 C 119.101563 60.765625 119.421875 59.261719 120.054688 58.160156 C 120.605469 57.183594 121.496094 56.445313 122.722656 55.933594 C 123.316406 55.679688 124.246094 55.429688 125.519531 55.171875 L 130.03125 54.535156 C 133.589844 54.242188 138.144531 54.09375 143.695313 54.09375 C 147.976563 54.09375 151.621094 54.199219 154.628906 54.410156 C 157.550781 54.621094 159.945313 54.898438 161.808594 55.234375 C 163.628906 55.660156 165.074219 56.1875 166.132813 56.824219 C 167.359375 57.503906 168.3125 58.289063 168.992188 59.175781 C 169.839844 60.191406 170.476563 61.589844 170.898438 63.371094 C 171.363281 65.320313 171.597656 67.671875 171.597656 70.425781 L 171.597656 73.09375 C 171.046875 72.628906 170.476563 72.207031 169.882813 71.824219 C 168.015625 70.722656 165.941406 69.9375 163.652344 69.472656 C 161.535156 69.132813 158.1875 68.835938 153.609375 68.582031 C 149.121094 68.371094 143.507813 68.265625 136.769531 68.265625 C 131.644531 68.265625 127.40625 68.371094 124.058594 68.582031 C 120.628906 68.792969 117.679688 69.132813 115.226563 69.597656 C 113.742188 69.851563 112.40625 70.234375 111.222656 70.742188 L 111.222656 70.808594 C 109.355469 71.570313 107.789063 72.503906 106.519531 73.601563 C 105.203125 74.789063 104.125 76.207031 103.277344 77.859375 C 101.753906 80.953125 100.988281 85.191406 100.988281 90.570313 C 100.988281 94.9375 101.496094 98.433594 102.515625 101.058594 C 103.53125 103.726563 105.371094 105.996094 108.042969 107.859375 C 109.3125 108.875 110.945313 109.722656 112.9375 110.402344 C 114.757813 111.039063 116.855469 111.503906 119.230469 111.800781 L 119.289063 111.800781 C 121.453125 112.050781 124.628906 112.265625 128.824219 112.433594 C 134.164063 112.5625 139.058594 112.625 143.507813 112.625 C 148.335938 112.625 152.636719 112.496094 156.40625 112.246094 C 160.179688 111.90625 162.933594 111.503906 164.671875 111.039063 C 167.296875 110.273438 169.644531 108.980469 171.722656 107.160156 L 171.597656 109.574219 C 171.597656 110.125 171.808594 110.65625 172.230469 111.164063 C 172.699219 111.585938 173.226563 111.800781 173.820313 111.800781 L 184.179688 111.800781 C 184.730469 111.800781 185.214844 111.585938 185.644531 111.164063 C 186.109375 110.738281 186.339844 110.230469 186.339844 109.636719 L 186.339844 74.9375 C 186.339844 70.996094 186.234375 67.609375 186.023438 64.769531 "/>
<path style=" stroke:none;fill-rule:evenodd;fill:rgb(5.099487%,49.798584%,76.499939%);fill-opacity:1;" d="M 208.203125 42.777344 L 238.839844 97.878906 L 267.117188 42.84375 C 267.542969 42.082031 268.179688 41.699219 269.027344 41.699219 L 281.226563 41.699219 C 282.03125 41.699219 282.648438 42.035156 283.070313 42.71875 C 283.492188 43.476563 283.515625 44.175781 283.136719 44.8125 L 251.105469 106.015625 L 251.105469 106.078125 C 247.164063 113.496094 244.113281 118.75 241.953125 121.84375 C 239.621094 125.101563 237.015625 127.75 234.136719 129.785156 C 231.425781 131.648438 228.457031 132.941406 225.238281 133.660156 C 222.230469 134.296875 217.90625 134.636719 212.273438 134.679688 C 209.941406 134.679688 207.929688 134.636719 206.234375 134.550781 C 205.683594 134.507813 205.21875 134.296875 204.835938 133.917969 C 204.414063 133.492188 204.199219 132.984375 204.199219 132.390625 L 204.199219 122.855469 C 204.199219 122.222656 204.433594 121.691406 204.898438 121.269531 C 205.367188 120.886719 205.9375 120.71875 206.617188 120.761719 C 208.355469 120.929688 209.878906 121.011719 211.191406 121.011719 C 214.496094 121.011719 217.292969 120.804688 219.582031 120.378906 C 221.824219 119.996094 223.542969 119.46875 224.730469 118.789063 L 224.730469 118.726563 C 225.832031 118.132813 227.082031 116.988281 228.476563 115.292969 C 229.28125 114.277344 230.132813 113.070313 231.019531 111.671875 C 230.34375 111.585938 229.769531 111.226563 229.304688 110.589844 L 192.316406 44.941406 C 191.894531 44.222656 191.894531 43.476563 192.316406 42.71875 C 192.738281 42.035156 193.355469 41.699219 194.160156 41.699219 L 206.363281 41.699219 C 207.164063 41.699219 207.78125 42.058594 208.203125 42.777344 "/>
<g clip-path="url(#clip1)" clip-rule="nonzero">
<path style=" stroke:none;fill-rule:nonzero;fill:rgb(95.298767%,45.899963%,12.5%);fill-opacity:1;" d="M 247.449219 153.058594 L 249.824219 153.058594 C 278.425781 153.058594 302.703125 150.433594 322.65625 145.179688 C 324.097656 144.753906 325.519531 144.355469 326.914063 143.972656 C 354.199219 135.960938 369.304688 123.144531 372.230469 105.519531 C 373.203125 99.800781 371 93.679688 365.621094 87.15625 C 363.070313 84.0625 359.414063 80.511719 354.695313 76.53125 L 354.699219 76.53125 C 352.417969 74.75 349.902344 72.863281 347.144531 70.863281 C 336.804688 63.363281 330.261719 58.34375 327.507813 55.800781 C 321.746094 50.464844 319.179688 45.867188 319.816406 42.011719 C 322.230469 27.480469 339.199219 16.503906 370.722656 9.089844 C 374.113281 8.285156 377.671875 7.523438 381.398438 6.800781 C 381.957031 6.695313 382.511719 6.609375 383.070313 6.503906 C 385.925781 5.972656 388.773438 5.46875 391.617188 5.007813 C 393.835938 4.652344 396.046875 4.335938 398.257813 4.027344 C 399.316406 3.871094 400.371094 3.71875 401.425781 3.578125 C 404.214844 3.210938 406.996094 2.878906 409.773438 2.578125 C 410.113281 2.539063 410.457031 2.503906 410.796875 2.46875 C 413.863281 2.144531 416.925781 1.859375 419.980469 1.617188 L 419.980469 1.59375 C 419.988281 1.589844 419.972656 1.617188 419.980469 1.617188 C 420.417969 1.617188 420.796875 1.234375 420.796875 0.796875 C 420.796875 0.355469 420.441406 0 420.003906 0 C 419.988281 0 420.011719 -0.00390625 420.003906 0 C 419.242188 -0.00390625 418.480469 0 417.6875 0 L 417.644531 0 C 417.621094 0 417.605469 0.00390625 417.582031 0.00390625 C 417.136719 0.00390625 416.71875 0.015625 416.277344 0.0195313 C 413.167969 0.0273438 410.089844 0.0546875 407.082031 0.125 C 405.351563 0.167969 403.683594 0.25 401.984375 0.3125 C 400.320313 0.371094 398.621094 0.414063 396.988281 0.496094 C 377.160156 1.480469 359.761719 3.941406 344.796875 7.882813 C 343.355469 8.308594 341.9375 8.707031 340.535156 9.089844 C 313.253906 17.097656 298.148438 29.914063 295.222656 47.539063 C 294.246094 53.261719 296.453125 59.382813 301.832031 65.90625 C 304.382813 69 308.039063 72.546875 312.757813 76.53125 L 312.753906 76.53125 C 315.035156 78.3125 317.550781 80.199219 320.308594 82.199219 C 330.644531 89.695313 337.191406 94.71875 339.945313 97.257813 C 345.707031 102.597656 348.273438 107.195313 347.636719 111.050781 C 345.222656 125.582031 328.253906 136.554688 296.730469 143.972656 C 293.339844 144.777344 289.78125 145.539063 286.054688 146.261719 C 285.496094 146.367188 284.9375 146.453125 284.382813 146.554688 C 281.527344 147.085938 278.679688 147.59375 275.839844 148.054688 C 273.617188 148.410156 271.40625 148.722656 269.195313 149.035156 C 268.140625 149.1875 267.082031 149.34375 266.027344 149.484375 C 263.238281 149.851563 260.457031 150.183594 257.679688 150.484375 C 257.339844 150.519531 256.996094 150.558594 256.652344 150.59375 C 253.589844 150.914063 247.472656 151.445313 247.449219 151.445313 C 247.011719 151.445313 246.65625 151.828125 246.65625 152.265625 C 246.65625 152.703125 247.011719 153.058594 247.449219 153.058594 "/>
</g>
<path style=" stroke:none;fill-rule:nonzero;fill:rgb(95.298767%,45.899963%,12.5%);fill-opacity:1;" d="M 399.886719 68.011719 C 400.179688 65.933594 400.667969 64.089844 401.34375 62.480469 C 402.109375 60.574219 403.167969 59.09375 404.523438 58.03125 L 404.589844 57.96875 C 406.324219 56.613281 408.761719 55.679688 411.894531 55.171875 C 415.371094 54.535156 420.394531 54.21875 426.957031 54.21875 C 434.585938 54.21875 440.324219 54.535156 444.179688 55.171875 C 447.90625 55.808594 450.703125 56.867188 452.570313 58.351563 C 453.925781 59.410156 454.964844 60.851563 455.683594 62.671875 C 456.277344 64.238281 456.660156 66.019531 456.828125 68.011719 Z M 472.019531 80.59375 C 472.484375 80.171875 472.714844 79.664063 472.714844 79.066406 C 472.589844 71.144531 472.0625 65.191406 471.128906 61.210938 C 470.152344 57.183594 468.269531 53.5625 465.472656 50.34375 C 462.121094 46.53125 457.71875 43.988281 452.253906 42.71875 C 449.710938 42.082031 446.320313 41.613281 442.085938 41.316406 C 437.890625 41.019531 432.953125 40.871094 427.277344 40.871094 C 421.132813 40.871094 415.984375 41.085938 411.832031 41.507813 C 407.511719 41.890625 403.972656 42.523438 401.21875 43.414063 C 398.339844 44.347656 395.882813 45.683594 393.847656 47.417969 C 391.730469 49.113281 389.925781 51.253906 388.445313 53.839844 C 386.917969 56.464844 385.773438 59.75 385.011719 63.691406 C 384.289063 67.417969 383.929688 71.824219 383.929688 76.90625 C 383.929688 84.070313 384.78125 90.128906 386.472656 95.085938 C 388.339844 100.167969 391.113281 104.023438 394.800781 106.652344 C 398.019531 108.898438 402.636719 110.464844 408.65625 111.355469 C 414.671875 112.199219 423.144531 112.625 434.074219 112.625 C 440.8125 112.625 446.574219 112.246094 451.363281 111.480469 C 456.363281 110.589844 460.300781 109.320313 463.183594 107.667969 C 466.234375 105.847656 468.519531 103.390625 470.046875 100.296875 C 471.617188 97.289063 472.441406 93.644531 472.527344 89.363281 C 472.527344 88.730469 472.3125 88.21875 471.890625 87.839844 C 471.464844 87.414063 470.980469 87.203125 470.429688 87.203125 L 459.496094 87.203125 C 458.90625 87.203125 458.417969 87.371094 458.035156 87.710938 C 457.652344 88.136719 457.421875 88.601563 457.335938 89.109375 C 457.164063 90.679688 456.914063 91.949219 456.574219 92.925781 C 456.277344 93.898438 455.917969 94.617188 455.492188 95.085938 C 455.492188 95.128906 455.472656 95.148438 455.429688 95.148438 C 454.710938 95.867188 453.863281 96.460938 452.886719 96.925781 C 451.746094 97.519531 450.410156 97.964844 448.882813 98.261719 C 445.578125 98.898438 440.261719 99.214844 432.933594 99.214844 C 428.398438 99.214844 424.183594 99.152344 420.285156 99.023438 C 416.9375 98.8125 414.144531 98.515625 411.894531 98.132813 L 411.960938 98.132813 C 410.09375 97.835938 408.378906 97.351563 406.8125 96.675781 C 405.328125 95.953125 404.246094 95.210938 403.570313 94.449219 C 402.296875 93.179688 401.324219 91.3125 400.648438 88.855469 C 400.054688 86.78125 399.652344 84.238281 399.441406 81.230469 L 470.492188 81.230469 C 471.128906 81.230469 471.636719 81.015625 472.019531 80.59375 "/>
<path style=" stroke:none;fill-rule:nonzero;fill:rgb(95.298767%,45.899963%,12.5%);fill-opacity:1;" d="M 553.175781 46.339844 C 550.761719 44.261719 547.730469 42.800781 544.089844 41.953125 C 540.699219 41.234375 535.71875 40.871094 529.152344 40.871094 C 526.867188 40.871094 524.789063 40.894531 522.925781 40.9375 C 519.40625 41.019531 516.527344 41.191406 514.28125 41.445313 C 510.765625 41.824219 507.882813 42.609375 505.636719 43.796875 C 503.730469 44.769531 502.082031 45.9375 500.679688 47.289063 L 500.679688 43.859375 C 500.679688 43.265625 500.46875 42.757813 500.046875 42.335938 C 499.578125 41.910156 499.050781 41.699219 498.457031 41.699219 L 488.097656 41.699219 C 487.546875 41.699219 487.0625 41.910156 486.636719 42.335938 C 486.214844 42.757813 486 43.265625 486 43.859375 L 486 109.636719 C 486 110.230469 486.214844 110.738281 486.636719 111.164063 C 487.0625 111.585938 487.546875 111.796875 488.097656 111.796875 L 498.457031 111.796875 C 499.050781 111.796875 499.578125 111.585938 500.046875 111.164063 C 500.46875 110.738281 500.679688 110.230469 500.679688 109.636719 L 500.679688 79.261719 C 500.679688 75.105469 500.914063 71.464844 501.382813 68.328125 C 501.847656 65.320313 502.523438 62.925781 503.414063 61.148438 C 503.964844 60.042969 504.578125 59.199219 505.257813 58.605469 C 505.980469 57.96875 506.953125 57.375 508.179688 56.824219 C 509.539063 56.273438 511.128906 55.808594 512.945313 55.425781 C 515.789063 54.835938 519.113281 54.453125 522.925781 54.285156 C 524.492188 54.242188 526.164063 54.21875 527.945313 54.21875 C 531.84375 54.21875 535.171875 54.515625 537.921875 55.109375 C 540.296875 55.617188 541.992188 56.359375 543.007813 57.335938 C 543.9375 58.222656 544.597656 59.410156 544.980469 60.890625 L 544.980469 60.957031 C 545.445313 62.820313 545.675781 65.402344 545.675781 68.710938 L 545.675781 73.414063 C 545.675781 73.964844 545.886719 74.472656 546.3125 74.9375 C 546.734375 75.363281 547.246094 75.574219 547.839844 75.574219 L 558.449219 75.574219 C 559.046875 75.574219 559.554688 75.363281 559.976563 74.9375 C 560.445313 74.472656 560.675781 73.964844 560.675781 73.414063 L 560.675781 66.609375 C 560.59375 61.910156 559.976563 57.96875 558.832031 54.792969 C 557.605469 51.359375 555.71875 48.542969 553.175781 46.339844 "/>
<g clip-path="url(#clip2)" clip-rule="nonzero">
<path style=" stroke:none;fill-rule:nonzero;fill:rgb(95.298767%,45.899963%,12.5%);fill-opacity:1;" d="M 637.703125 94.894531 C 637.109375 95.910156 636.113281 96.695313 634.71875 97.246094 C 633.148438 97.925781 630.648438 98.433594 627.21875 98.769531 C 623.785156 99.066406 619.253906 99.214844 613.617188 99.214844 C 603.535156 99.214844 596.371094 98.960938 592.136719 98.453125 C 590.738281 98.328125 589.617188 98.132813 588.765625 97.878906 L 587.8125 97.628906 C 586.585938 96.992188 585.695313 96.164063 585.144531 95.148438 C 584.511719 93.917969 584.191406 92.457031 584.191406 90.761719 C 584.191406 88.984375 584.46875 87.4375 585.015625 86.121094 C 585.566406 85.023438 586.332031 84.195313 587.308594 83.644531 C 587.8125 83.347656 588.578125 83.09375 589.59375 82.882813 C 590.652344 82.585938 592.011719 82.375 593.664063 82.246094 C 597.007813 81.949219 602.941406 81.804688 611.457031 81.804688 C 617.601563 81.804688 622.410156 81.992188 625.882813 82.375 C 629.65625 82.714844 632.433594 83.222656 634.210938 83.898438 C 635.777344 84.492188 636.941406 85.320313 637.703125 86.378906 C 638.421875 87.394531 638.785156 88.773438 638.785156 90.507813 C 638.785156 92.289063 638.421875 93.75 637.703125 94.894531 M 653.847656 64.769531 C 653.722656 62.226563 653.464844 59.957031 653.085938 57.972656 C 652.28125 54.410156 650.566406 51.316406 647.9375 48.691406 L 648.003906 48.691406 C 644.90625 45.554688 640.691406 43.414063 635.351563 42.269531 C 632.769531 41.722656 629.421875 41.339844 625.3125 41.128906 C 620.992188 40.832031 616.140625 40.683594 610.757813 40.683594 C 603.46875 40.683594 597.390625 41 592.515625 41.636719 C 587.519531 42.3125 583.578125 43.328125 580.695313 44.683594 C 577.6875 46.167969 575.421875 48.265625 573.898438 50.980469 C 572.414063 53.648438 571.671875 56.886719 571.671875 60.699219 L 571.863281 63.816406 C 571.902344 64.367188 572.136719 64.8125 572.5625 65.148438 C 572.945313 65.53125 573.410156 65.722656 573.960938 65.722656 L 584.828125 65.722656 C 585.421875 65.722656 585.933594 65.53125 586.351563 65.148438 C 586.734375 64.726563 586.925781 64.195313 586.925781 63.5625 L 586.925781 62.671875 C 586.925781 60.765625 587.242188 59.261719 587.878906 58.160156 C 588.472656 57.140625 589.363281 56.402344 590.546875 55.933594 C 591.058594 55.722656 591.988281 55.46875 593.347656 55.171875 L 597.855469 54.535156 C 601.414063 54.242188 605.992188 54.09375 611.585938 54.09375 C 615.820313 54.09375 619.464844 54.199219 622.515625 54.410156 C 625.441406 54.621094 627.789063 54.898438 629.570313 55.234375 L 629.632813 55.234375 C 631.410156 55.660156 632.855469 56.1875 633.953125 56.824219 C 635.183594 57.503906 636.136719 58.289063 636.816406 59.175781 C 637.621094 60.148438 638.277344 61.546875 638.785156 63.371094 C 639.253906 65.320313 639.484375 67.671875 639.484375 70.425781 L 639.484375 73.09375 C 638.890625 72.628906 638.300781 72.207031 637.703125 71.824219 C 635.839844 70.722656 633.765625 69.9375 631.476563 69.472656 C 629.273438 69.132813 625.925781 68.835938 621.433594 68.582031 C 616.984375 68.371094 611.351563 68.265625 604.53125 68.265625 C 599.445313 68.265625 595.230469 68.371094 591.882813 68.582031 C 588.449219 68.792969 585.507813 69.132813 583.046875 69.597656 C 581.605469 69.851563 580.296875 70.234375 579.105469 70.742188 L 579.105469 70.808594 C 577.246094 71.527344 575.675781 72.457031 574.402344 73.601563 C 573.089844 74.789063 571.992188 76.207031 571.101563 77.859375 C 569.617188 80.953125 568.878906 85.191406 568.878906 90.570313 C 568.878906 94.9375 569.363281 98.433594 570.339844 101.058594 C 571.355469 103.730469 573.21875 106.015625 575.933594 107.921875 C 577.199219 108.898438 578.808594 109.722656 580.761719 110.402344 C 582.542969 111.039063 584.636719 111.503906 587.050781 111.796875 C 589.296875 112.050781 592.496094 112.265625 596.648438 112.433594 C 602.03125 112.5625 606.945313 112.625 611.394531 112.625 C 616.226563 112.625 620.503906 112.496094 624.230469 112.246094 C 628.042969 111.90625 630.796875 111.503906 632.492188 111.039063 C 635.078125 110.273438 637.429688 108.980469 639.546875 107.160156 L 639.484375 109.574219 C 639.484375 110.207031 639.675781 110.738281 640.058594 111.164063 C 640.566406 111.585938 641.074219 111.796875 641.578125 111.796875 L 652.003906 111.796875 C 652.597656 111.796875 653.105469 111.585938 653.527344 111.164063 C 653.953125 110.738281 654.164063 110.230469 654.164063 109.636719 L 654.164063 74.9375 C 654.164063 70.996094 654.058594 67.609375 653.847656 64.769531 "/>
</g>
</g>
</svg>